<?xml version="1.0" encoding="utf-8"?>
<!-- Generator: Adobe Illustrator 16.0.0, SVG Export Plug-In . SVG Version: 6.00 Build 0)  -->
<!DOCTYPE svg PUBLIC "-//W3C//DTD SVG 1.1//EN" "http://www.w3.org/Graphics/SVG/1.1/DTD/svg11.dtd">
<svg version="1.1" id="Capa_1" xmlns="http://www.w3.org/2000/svg" xmlns:xlink="http://www.w3.org/1999/xlink" x="0px" y="0px"
	 width="64px" height="64px" viewBox="0 0 64 64" enable-background="new 0 0 64 64" xml:space="preserve">
<g>
	<g>
		<path d="M32,62.5C15.182,62.5,1.5,48.817,1.5,32C1.5,15.182,15.182,1.5,32,1.5c16.817,0,30.5,13.682,30.5,30.5
			C62.5,48.817,48.817,62.5,32,62.5z M32,8.5C19.042,8.5,8.5,19.042,8.5,32S19.042,55.5,32,55.5S55.5,44.958,55.5,32
			S44.958,8.5,32,8.5z"/>
	</g>
	<g>
		<polygon points="38.274,43.225 28.499,33.45 28.499,15.25 35.499,15.25 35.499,30.55 43.224,38.275 		"/>
	</g>
</g>
</svg>
