<?xml version="1.0" encoding="utf-8"?>
<!-- Generator: Adobe Illustrator 16.0.0, SVG Export Plug-In . SVG Version: 6.00 Build 0)  -->
<!DOCTYPE svg PUBLIC "-//W3C//DTD SVG 1.1//EN" "http://www.w3.org/Graphics/SVG/1.1/DTD/svg11.dtd">
<svg version="1.1" id="Capa_1" xmlns="http://www.w3.org/2000/svg" xmlns:xlink="http://www.w3.org/1999/xlink" x="0px" y="0px"
	 width="64px" height="64px" viewBox="0 0 64 64" enable-background="new 0 0 64 64" xml:space="preserve">
<g>
	<g>
		<path d="M32.001,33.312c-7.995,0-14.5-6.505-14.5-14.5s6.505-14.5,14.5-14.5s14.5,6.505,14.5,14.5S39.996,33.312,32.001,33.312z
			 M32.001,11.312c-4.136,0-7.5,3.364-7.5,7.5s3.364,7.5,7.5,7.5s7.5-3.364,7.5-7.5S36.137,11.312,32.001,11.312z"/>
	</g>
	<g>
		<path d="M59,60h-7v-5.891C52,47.778,48.379,44,42,44H23c-6.664,0-12,4.07-12,10.109V60H4v-5.891C4,44.178,12.453,37,23,37h19
			c10.304,0,17,6.852,17,17.109V60z"/>
	</g>
</g>
</svg>
