<?xml version="1.0" encoding="utf-8"?>
<!-- Generator: Adobe Illustrator 16.0.0, SVG Export Plug-In . SVG Version: 6.00 Build 0)  -->
<!DOCTYPE svg PUBLIC "-//W3C//DTD SVG 1.1//EN" "http://www.w3.org/Graphics/SVG/1.1/DTD/svg11.dtd">
<svg version="1.1" id="Capa_1" xmlns="http://www.w3.org/2000/svg" xmlns:xlink="http://www.w3.org/1999/xlink" x="0px" y="0px"
	 width="64px" height="64px" viewBox="0 0 64 64" enable-background="new 0 0 64 64" xml:space="preserve">
<g>
	<path d="M50.699,36.513c0.143-0.593,0.668-1.013,1.277-1.013h5.369c0.82,0,1.443,0.744,1.291,1.551
		c-2.365,12.566-13.4,22.074-26.655,22.074c-8.269,0-15.671-3.701-20.646-9.535l0.451,9.032C11.826,59.371,11.228,60,10.477,60
		H5.294c-0.725,0-1.312-0.588-1.312-1.312V36.776c0-0.726,0.588-1.312,1.312-1.312h21.911c0.725,0,1.312,0.587,1.312,1.312v5.186
		c0,0.749-0.626,1.347-1.375,1.312L16.001,42.74c3.455,5.135,9.32,8.51,15.98,8.51C41.068,51.25,48.672,44.971,50.699,36.513z
		 M53.52,4h5.186c0.727,0,1.312,0.588,1.312,1.312v21.912c0,0.725-0.586,1.312-1.312,1.312h-21.91c-0.725,0-1.313-0.588-1.313-1.312
		v-5.186c0-0.749,0.627-1.347,1.375-1.311l11.105,0.532c-3.457-5.134-9.32-8.509-15.981-8.509c-9.086,0-16.689,6.279-18.718,14.737
		c-0.143,0.592-0.668,1.013-1.277,1.013H6.618c-0.819,0-1.442-0.745-1.291-1.55c2.366-12.567,13.4-22.075,26.655-22.075
		c8.276,0,15.686,3.708,20.661,9.553l-0.434-9.052C52.174,4.626,52.771,4,53.52,4z"/>
</g>
</svg>
